<?xml version="1.0" encoding="utf-8"?>
<!-- Generator: Adobe Illustrator 16.0.0, SVG Export Plug-In . SVG Version: 6.00 Build 0)  -->
<!DOCTYPE svg PUBLIC "-//W3C//DTD SVG 1.1//EN" "http://www.w3.org/Graphics/SVG/1.1/DTD/svg11.dtd">
<svg version="1.1" id="圖層_1" xmlns="http://www.w3.org/2000/svg" xmlns:xlink="http://www.w3.org/1999/xlink" x="0px" y="0px"
	 width="270.51px" height="80px" viewBox="-5.255 0 270.51 80" enable-background="new -5.255 0 270.51 80" xml:space="preserve">
<g id="圖層_3" display="none">
	<rect x="-397.514" display="inline" opacity="0.7" enable-background="new    " width="1920" height="1630.727"/>
	<circle display="inline" opacity="0.7" fill="#71C7D5" enable-background="new    " cx="247.845" cy="47.667" r="24.43"/>
	
		<text transform="matrix(1 0 0 1 231.334 56.3516)" display="inline" fill="#FFFFFF" font-family="'MicrosoftJhengHeiRegular'" font-size="22.5736">2.4</text>
</g>
<g>
	<g>
		<g>
			<path fill="#B8876F" d="M63.053,48.093h-6.716v-1.89h2.618c-0.25-0.705-0.478-1.275-0.683-1.707l1.958-0.512
				c0.341,0.689,0.622,1.43,0.842,2.219h1.98V48.093z M62.632,64.198h-1.89v-1.115h-2.026v1.399H56.85v-7.955h5.782V64.198z
				 M62.654,51.541h-5.782v-1.844h5.782V51.541z M62.654,54.898h-5.782v-1.82h5.782V54.898z M60.742,61.17v-2.776h-2.026v2.776
				H60.742z M76.711,61.443c-0.387,2.087-1.157,3.131-2.311,3.131c-0.751,0-1.464-0.52-2.14-1.56
				c-1.123,0.774-2.079,1.339-2.868,1.696l-1.115-1.514c1.085-0.434,2.147-1.025,3.187-1.776c-0.349-1.093-0.565-2.303-0.648-3.631
				h-2.914v1.298c0.523-0.076,1.222-0.254,2.095-0.535l0.216,1.594c-1.146,0.334-1.916,0.543-2.311,0.626v1.89
				c0,0.523-0.142,0.957-0.427,1.303c-0.284,0.346-0.916,0.518-1.895,0.518c-0.357,0-0.763-0.019-1.219-0.057l-0.558-1.81
				c0.531,0.022,0.945,0.034,1.241,0.034c0.66,0,0.99-0.145,0.99-0.433v-0.979c-1.048,0.229-1.848,0.377-2.402,0.444l-0.58-1.491
				c1.131-0.22,2.125-0.432,2.982-0.637V57.79h-2.8v-1.582h2.8v-0.865c-0.676,0.099-1.404,0.137-2.186,0.114l-0.614-1.56
				c1.927,0.022,3.934-0.197,6.021-0.66l0.763,1.445c-0.706,0.228-1.411,0.376-2.117,0.444v1.081h2.777
				c0.016-0.417,0.022-1.282,0.022-2.595h1.89c-0.022,0.926-0.022,1.791,0,2.595h3.984v1.582h-3.87
				c-0.023,0.569,0.095,1.313,0.353,2.231c0.516-0.494,1.043-1.146,1.582-1.958l1.332,1.126c-0.646,0.927-1.393,1.78-2.242,2.562
				l0.558,0.797c0.038,0.062,0.095,0.091,0.171,0.091c0.068,0,0.184-0.151,0.347-0.455c0.163-0.303,0.316-0.797,0.461-1.479
				L76.711,61.443z M76.598,52.986h-13.34v-1.582h5.44v-1.001h-4.484v-1.468h4.484v-1.037h-4.895v-1.536h12.35v1.536h-5.497v1.037
				h4.803v1.468h-4.803v1.001h5.941V52.986z M68.926,45.406l-1.821,0.752c-0.576-0.456-1.229-0.93-1.957-1.424l1.729-0.865
				C67.682,44.379,68.364,44.891,68.926,45.406z M74.595,44.473c-0.312,0.434-0.911,0.986-1.799,1.662l-1.958-0.58
				c0.813-0.652,1.396-1.184,1.753-1.594L74.595,44.473z M75.892,55.149l-1.297,0.865c-0.593-0.751-1.074-1.286-1.446-1.604
				l1.252-0.934C74.909,53.879,75.406,54.437,75.892,55.149z"/>
			<path fill="#B8876F" d="M100.278,58.234H98.65v2.959h-7.512v1.445c0,0.455-0.146,0.841-0.438,1.156
				c-0.292,0.314-0.63,0.502-1.014,0.563c-0.383,0.061-1.546,0.092-3.488,0.092l-0.626-1.765l3.119-0.068
				c0.083,0,0.17-0.048,0.262-0.142c0.091-0.096,0.137-0.188,0.137-0.279v-1.002h-7.672v-1.559h7.672v-1.4h-9.095v-1.57h9.095
				v-1.275h-7.672v-1.56h7.672v-1.241h-7.273v-4.359h7.273v-1.263h-8.901v-1.604h8.901v-1.31h2.049v1.31h8.866v1.604h-8.866v1.263
				h7.296v4.359h-7.296v1.241h7.512v2.835h1.628V58.234z M89.09,51.074v-1.354h-5.18v1.354H89.09z M96.317,51.074v-1.354h-5.179
				v1.354H96.317z M96.602,56.664v-1.275h-5.463v1.275H96.602z M96.602,59.635v-1.4h-5.463v1.4H96.602z"/>
			<path fill="#B8876F" d="M123.958,64.016h-20.295v-1.639h20.295V64.016z M113.145,54.217l-1.798,0.66
				c-0.114-0.273-0.308-0.656-0.581-1.15c-2.526,0.615-4.64,1.028-6.34,1.24l-0.375-1.49c0.311-0.121,0.466-0.44,0.466-0.957v-8.023
				h8.185v6.294h-6.249v2.175c1.335-0.205,2.47-0.434,3.403-0.684c-0.159-0.242-0.315-0.459-0.467-0.648l1.844-0.627
				C112.052,52.1,112.689,53.169,113.145,54.217z M121.374,61.467H106.11v-6.34h15.264V61.467z M110.697,46.943v-0.979h-4.245v0.979
				H110.697z M110.697,49.299v-1.023h-4.245v1.023H110.697z M119.303,57.528v-0.956h-11.075v0.956H119.303z M119.303,59.93v-1.023
				h-11.075v1.023H119.303z M123.935,51.279c-0.068,1.412-0.29,2.281-0.666,2.607c-0.375,0.326-1.196,0.488-2.464,0.488
				c-0.948,0-1.565-0.135-1.85-0.403c-0.284-0.27-0.427-0.651-0.427-1.144v-1.549c-1.191,1.404-2.58,2.493-4.166,3.268l-1.104-1.629
				c1.919-0.85,3.304-1.945,4.154-3.289h-3.665l1.001-3.494h-1.115v-1.639h9.538v1.639h-2.686c-0.106,0.691-0.228,1.279-0.364,1.764
				h3.54v1.73h-3.244v2.607c0,0.326,0.242,0.488,0.729,0.488c0.288,0,0.516-0.092,0.683-0.278s0.25-0.791,0.25-1.815L123.935,51.279
				z M118.528,46.135h-1.787l-0.489,1.764h1.878C118.335,47.307,118.468,46.719,118.528,46.135z"/>
			<path fill="#B8876F" d="M135.664,44.666c-1.518,4.105-4.011,7.555-7.478,10.347l-1.332-1.775
				c3.118-2.345,5.364-5.437,6.738-9.276L135.664,44.666z M146.056,63.287l-1.854,1.287c-0.433-1.018-0.869-1.89-1.31-2.618
				c-3.589,0.843-7.979,1.612-13.169,2.311l-0.604-1.775c1.996-1.442,4.333-5.396,7.012-11.86l2.117,0.626
				c-1.89,4.424-3.832,7.952-5.828,10.585c3.498-0.402,6.64-0.951,9.425-1.65c-0.471-0.812-1.278-1.988-2.425-3.527l1.719-1.116
				C143.074,57.977,144.713,60.557,146.056,63.287z M147.581,53.34l-1.24,1.832c-2.884-2.041-5.035-5.016-6.454-8.924h-1.89v-1.98
				h3.381C142.569,48.244,144.637,51.268,147.581,53.34z"/>
			<path fill="#B8876F" d="M160.21,60.328h-3.631v4.075h-1.912v-4.075h-4.019v-1.844h4.019v-1.867h-3.528v-1.809h1.798
				c-0.189-1.018-0.451-2.016-0.785-2.994h-1.445v-1.9h3.915v-1.707h-3.289v-1.845h3.289v-2.23h1.958v2.23h3.073v1.845h-3.073v1.707
				h3.54v1.9h-1.07c-0.189,0.744-0.493,1.742-0.911,2.994h1.605v1.809h-3.164v1.867h3.631V60.328z M157.068,51.814H154.2
				c0.212,0.797,0.429,1.795,0.648,2.994h1.286C156.515,53.829,156.825,52.832,157.068,51.814z M171.193,62.821l-1.286,1.628
				c-1.373-1.018-2.367-1.871-2.982-2.562c-0.743,1.001-1.544,1.866-2.401,2.595l-1.264-1.57c1.055-0.834,1.882-1.688,2.481-2.561
				c-1.153-1.799-1.924-4.075-2.311-6.83h-0.58v10.859h-2.015V44.428h9.254c0,1.184-0.042,2.267-0.126,3.25
				c-0.083,0.982-0.228,1.603-0.433,1.86c-0.204,0.259-0.431,0.483-0.677,0.677c-0.247,0.193-0.928,0.291-2.043,0.291
				c-0.342,0-0.71-0.012-1.104-0.034l-0.671-1.845c0.401,0.016,1.164,0.023,2.287,0.023c0.167,0,0.312-0.082,0.433-0.244
				c0.121-0.164,0.201-0.83,0.239-1.998h-5.145v5.225h7.272c-0.288,3.43-0.975,6.26-2.06,8.49
				C168.867,61.064,169.911,61.964,171.193,62.821z M167.949,53.521h-2.583c0.288,1.943,0.777,3.529,1.468,4.758
				C167.335,57.043,167.707,55.457,167.949,53.521z"/>
			<path fill="#B8876F" d="M184.061,47.137h-6.157c-0.706,0.813-1.567,1.612-2.584,2.401l-1.354-1.685
				c1.791-1.199,2.971-2.52,3.54-3.961l2.105,0.558c-0.106,0.288-0.262,0.6-0.467,0.934h4.917V47.137z M193.872,54.057h-2.049
				v-2.242h-15.127v2.242h-2.06v-3.961h8.399c-0.083-0.22-0.272-0.568-0.568-1.047l2.379-0.375c0.212,0.311,0.463,0.785,0.751,1.422
				h8.274V54.057z M191.755,63.447h-12.384v0.934h-2.025V52.986h13.636v4.451h-11.61v1.24h12.384V63.447z M181.91,49.14
				l-2.276,0.421c-0.205-0.439-0.531-0.986-0.979-1.639l2.208-0.455C181.151,47.809,181.5,48.365,181.91,49.14z M188.91,55.924
				v-1.355h-9.539v1.355H188.91z M189.672,61.865v-1.628h-10.301v1.628H189.672z M194.453,47.137h-7.183
				c-0.356,0.546-0.797,1.096-1.32,1.65l-1.89-1.002c1.282-1.357,2.189-2.678,2.721-3.961l2.105,0.604
				c-0.197,0.402-0.368,0.721-0.512,0.956h6.078V47.137z M191.334,49.276l-2.242,0.353c-0.182-0.539-0.478-1.146-0.888-1.82
				l2.265-0.251C190.772,48.051,191.061,48.624,191.334,49.276z"/>
			<path fill="#B8876F" d="M204.69,59.44c-1.783,1.101-3.946,2.22-6.488,3.358l-0.717-1.98c0.562-0.221,1.487-0.642,2.777-1.264
				V53.75h-2.242v-1.936h2.242v-4.609h-2.596v-1.867h6.978v1.867h-2.379v4.609h2.026v1.936h-2.026v4.734
				c0.797-0.334,1.582-0.744,2.356-1.229L204.69,59.44z M217.95,63.891h-13.352v-1.889h5.726v-2.3h-4.917v-1.844h4.917v-2.003h-4.77
				V44.666h11.508v11.189h-4.701v2.003h5.031v1.844h-5.031v2.3h5.589V63.891z M210.324,49.299v-2.788h-2.721v2.788H210.324z
				 M210.324,54.012v-3.027h-2.721v3.027H210.324z M215.036,49.299v-2.788h-2.675v2.788H215.036z M215.036,54.012v-3.027h-2.675
				v3.027H215.036z"/>
			<path fill="#B8876F" d="M228.769,59.748c-1.95,1.533-4.086,2.743-6.407,3.631l-1.241-1.674c2.254-0.818,4.283-1.916,6.09-3.289
				L228.769,59.748z M241.21,57.482l-1.742,1.241c-0.538-0.767-0.967-1.335-1.286-1.708c-2.185,0.273-4.097,0.467-5.736,0.581v4.758
				c0.03,0.63-0.157,1.128-0.563,1.497c-0.406,0.367-1.637,0.552-3.693,0.552l-0.819-2.071c0.842,0.061,1.635,0.091,2.379,0.091
				c0.417,0,0.626-0.201,0.626-0.604V57.79c-3.188,0.159-5.555,0.251-7.103,0.273l-0.489-1.787c1.965-0.546,4.257-1.51,6.875-2.892
				c-2.725,0.137-4.659,0.205-5.806,0.205l-0.33-1.514c3.202-1.002,6.056-2.617,8.56-4.849l1.912,1.093
				c-1.532,1.365-3.422,2.523-5.668,3.472l1.844-0.091l2.812-0.217c0.129-0.016,0.648-0.346,1.56-0.99l1.616-1.195l1.821,1.264
				c-3.65,2.596-7.084,4.45-10.301,5.566c2.716-0.114,5.721-0.376,9.015-0.786c-0.396-0.417-0.854-0.86-1.378-1.331l1.844-1.047
				C238.888,54.58,240.238,56.087,241.21,57.482z M234.062,45.008c-2.337,1.897-5.615,3.415-9.834,4.553l-1.195-1.775
				c3.749-0.805,6.841-2.102,9.276-3.893L234.062,45.008z M241.711,61.956l-1.4,1.571c-1.57-1.328-3.616-2.611-6.135-3.848
				l1.445-1.445C238.109,59.471,240.14,60.711,241.711,61.956z"/>
			<path fill="#B8876F" d="M247.601,58.975c-0.296,2.314-0.793,4.181-1.491,5.6l-1.753-0.797c0.69-1.328,1.199-3.035,1.525-5.122
				L247.601,58.975z M253.27,57.438l-1.821,0.626c0-0.091-0.084-0.493-0.251-1.206c-2.041,0.606-4.094,1.065-6.157,1.377
				l-0.354-1.594c1.344-1.085,2.743-2.675,4.2-4.77c-1.236,0.189-2.436,0.326-3.597,0.41l-0.25-1.365
				c1.729-1.928,3.118-4.262,4.166-7l1.935,0.682c-0.986,2.27-2.109,4.186-3.369,5.748c0.797-0.068,1.54-0.158,2.23-0.272
				c0.463-0.706,0.835-1.389,1.116-2.049l1.798,0.933c-1.616,2.914-3.255,5.236-4.917,6.967c0.979-0.197,1.874-0.44,2.687-0.729
				c-0.159-0.447-0.285-0.781-0.376-1.002l1.605-0.694C252.552,54.819,253.003,56.133,253.27,57.438z M250.651,63.617l-1.765,0.398
				c0.038-1.51-0.155-3.183-0.58-5.02l1.604-0.42C250.344,60.428,250.591,62.107,250.651,63.617z M253.36,61.637l-1.56,0.627
				c-0.243-1.336-0.546-2.432-0.91-3.289l1.536-0.581C252.837,59.236,253.147,60.316,253.36,61.637z M265.255,58.928
				c-0.145,2.443-0.285,3.785-0.422,4.024s-0.37,0.518-0.7,0.837c-0.33,0.318-1.128,0.478-2.396,0.478
				c-1.063,0-1.761-0.159-2.095-0.478c-0.334-0.319-0.5-0.961-0.5-1.924v-7.854c-0.767,0.121-1.358,0.209-1.776,0.262
				c0,1.684-0.079,3.1-0.238,4.245c-0.16,1.146-0.545,2.256-1.155,3.329c-0.611,1.074-1.429,2.021-2.453,2.84l-1.491-1.422
				c0.676-0.471,1.3-1.108,1.872-1.913c0.573-0.804,0.978-1.688,1.213-2.651c0.234-0.964,0.334-2.363,0.296-4.2l-2.049,0.228
				l-0.376-1.537c1.32-1.615,2.401-3.315,3.244-5.099h-3.449v-1.912h4.246c0.189-0.44,0.443-1.157,0.763-2.151l2.128,0.33
				c-0.266,0.751-0.493,1.358-0.683,1.821h5.782v1.912h-6.625c-0.675,1.472-1.566,2.985-2.675,4.542
				c1.98-0.122,3.806-0.346,5.476-0.672c-0.281-0.448-0.684-0.96-1.207-1.537l1.65-1.081c1.608,1.92,2.751,3.536,3.426,4.849
				l-1.719,1.149c-0.409-0.759-0.77-1.373-1.081-1.844l-1.184,0.205v8.184c0,0.38,0.346,0.569,1.036,0.569
				c0.554,0,0.892-0.205,1.013-0.615c0.121-0.409,0.216-1.597,0.284-3.563L265.255,58.928z"/>
		</g>
	</g>
	<g>
		<g>
			<g>
				<path fill="#B8876F" d="M8.429,26.64c-0.627-0.1-1.25-0.191-1.871-0.191c-6.514,0-11.813,5.295-11.813,11.809
					c0,4.197,2.287,8.078,5.875,10.176c-0.455,1.287-1.234,3.736-1.234,5.434c0,6.514,5.299,11.811,11.813,11.811
					c3.199,0,6.178-1.332,8.395-3.598c1.553,1.156,5.164,3.598,8.059,3.598c6.512,0,11.811-5.297,11.811-11.811
					c0-1.809-0.438-3.576-1.227-5.186c1.854-1.246,6.078-4.668,6.078-10.211l0,0c0-4.057-2.047-7.785-5.471-9.969
					c-1.895-1.205-4.086-1.842-6.342-1.842c-0.305,0-0.641,0.053-0.965,0.123c-0.684-5.91-5.664-10.459-11.691-10.459
					C13.8,16.323,9.034,20.774,8.429,26.64z M10.286,27.878c0-5.385,4.119-9.447,9.494-9.447c5.143,0,9.43,4.016,9.719,9.143
					l0.074,2.021l1.383-0.467c0.41-0.154,1.16-0.361,1.541-0.361c1.854,0,3.656,0.523,5.209,1.514
					c2.816,1.793,4.496,4.855,4.496,8.189c0,5.654-5.789,8.873-5.846,8.906l-0.971,0.527l0.57,0.945
					c0.916,1.508,1.396,3.246,1.396,5.018c0,5.352-4.354,9.703-9.701,9.703c-2.389,0-6.205-2.668-7.473-3.697l-0.816-0.662
					L18.7,60.021c-1.854,2.258-4.588,3.549-7.502,3.549c-5.35,0-9.703-4.352-9.703-9.703c0-1.609,1.012-4.525,1.402-5.514
					l0.361-0.914l-0.887-0.424c-3.352-1.607-5.518-5.043-5.518-8.758c0-5.348,4.354-9.699,9.703-9.699
					c0.66,0,1.252,0.064,1.891,0.195l1.838,0.469V27.878z"/>
			</g>
		</g>
		<g>
			<g>
				<path fill="#B8876F" d="M31.235,43.255l-0.057,1c-0.602,6.184-5.744,10.758-11.967,10.758c-6.242,0-11.389-4.547-11.969-10.756
					L7.19,43.255H5.081l0.061,1.152c0.686,7.299,6.734,12.713,14.07,12.713c7.314,0,13.361-5.35,14.066-12.617
					c0-0.002,0.066-1.248,0.066-1.248H31.235z"/>
			</g>
		</g>
		<g>
			<g>
				<path fill="#B8876F" d="M5.144,40.712l2.102,0.199c0.584-6.203,5.73-10.877,11.967-10.877c6.223,0,11.486,4.848,11.986,11.043
					l2.1-0.172c-0.584-7.277-6.771-12.98-14.086-12.98C11.88,27.925,5.833,33.421,5.144,40.712z"/>
			</g>
		</g>
		<g>
			<g>
				<path fill="#B8876F" d="M21.286,35.466c3,0.705,5.975,3.654,5.975,7.012c0,3.592-2.805,6.646-6.355,7.109l-0.15,2.135
					c4.604-0.602,8.646-4.598,8.646-9.244c0-4.346-4.115-8.523-8.115-9.35V35.466z"/>
			</g>
		</g>
		<g>
			<g>
				<path fill="#B8876F" d="M10.003,42.478c0,5.117,4.283,9.279,9.283,9.279v-2.109c-4,0-7.17-3.217-7.17-7.17
					c0-3.955,3.17-7.174,7.17-7.174v-2.105C14.286,33.198,10.003,37.36,10.003,42.478z"/>
			</g>
		</g>
	</g>
	<g>
		<g>
			<g>
				<path fill="#B8876F" d="M74.133,36.1h-17.95v-1.835h5.243c-0.645-3.684-1.506-6.857-2.581-9.52l1.432-0.999h-3.368v-1.855h7.493
					c-0.343-0.968-0.797-1.926-1.361-2.874l1.986-0.676c0.605,1.129,1.126,2.313,1.563,3.55h7.008v1.855h-3.681l1.513,0.979
					c-0.396,2.783-1.217,5.963-2.46,9.54h5.163V36.1z M69.675,23.747h-9.096c1.177,3.126,2.094,6.632,2.753,10.518h3.65
					C68.341,30.386,69.238,26.879,69.675,23.747z"/>
				<path fill="#B8876F" d="M81.545,26.308l-1.129,1.452c-0.962-0.928-2.182-1.852-3.661-2.773l1.2-1.422
					C79.259,24.332,80.456,25.246,81.545,26.308z M81.736,30.049c-0.881,2.474-1.97,4.693-3.267,6.656l-1.614-1.119
					c1.123-1.513,2.205-3.661,3.247-6.444L81.736,30.049z M81.959,21.538l-1.302,1.412c-0.961-1.136-2.145-2.148-3.549-3.036
					l1.301-1.412C79.82,19.464,81.004,20.476,81.959,21.538z M95.038,35.808l-1.694,0.897c-0.31-0.733-0.604-1.368-0.888-1.906
					c-3.489,0.833-6.753,1.385-9.792,1.654l-0.686-1.755c1.688-1.378,3.21-3.54,4.568-6.484h-4.548v-1.795h5.576v-3.267h-4.709
					v-1.775h4.709v-2.743h1.886v2.743h4.438v1.775h-4.438v3.267h5.365v1.795h-6.091c-1.298,2.683-2.662,4.76-4.095,6.232
					c2.199-0.249,4.498-0.662,6.898-1.24c-0.391-0.72-1.009-1.681-1.855-2.884l1.754-0.807
					C93.064,31.935,94.265,34.033,95.038,35.808z"/>
				<path fill="#B8876F" d="M102.278,25.007c1.103,1.627,1.653,3.113,1.653,4.457c0,0.881-0.185,1.567-0.555,2.058
					c-0.369,0.491-1.115,0.736-2.238,0.736c-0.175,0-0.354-0.006-0.534-0.02l-0.515-1.755c0.229,0.034,0.454,0.051,0.676,0.051
					c0.632,0,1.019-0.081,1.159-0.242c0.142-0.162,0.212-0.373,0.212-0.635c0-1.445-0.592-2.904-1.774-4.377
					c0.625-1.58,1.126-3.136,1.502-4.669h-1.996v15.964h-1.795V18.856h5.637v1.674C103.279,22.11,102.803,23.602,102.278,25.007z
					 M115.579,32.57c0,1.614-0.2,2.672-0.6,3.177c-0.4,0.504-1.185,0.756-2.354,0.756c-0.854,0-1.446-0.129-1.775-0.388
					s-0.494-0.711-0.494-1.356v-5.516h-1.755c0,3.644-1.681,6.151-5.042,7.523l-1.129-1.513c2.917-1.103,4.376-2.871,4.376-5.304
					c0-0.229-0.014-0.464-0.04-0.706h-2.38v-1.714h10.892v1.714h-3.086v5.123c0,0.235,0.124,0.353,0.373,0.353
					c0.564,0,0.912-0.103,1.044-0.308c0.131-0.205,0.196-0.99,0.196-2.355L115.579,32.57z M115.105,24.826h-1.774v-2.541h-7.13
					v2.541h-1.775V20.51h4.256c-0.074-0.37-0.329-0.948-0.767-1.735l1.886-0.292c0.303,0.531,0.578,1.207,0.827,2.027h4.478V24.826z
					 M112.735,25.733h-5.909v-1.755h5.909V25.733z"/>
			</g>
		</g>
		<g>
			<g>
				<path fill="#B8876F" d="M128.564,35.76h-5.485V25.704h1.558v8.719h3.928V35.76z"/>
				<path fill="#B8876F" d="M135.867,32.579h-4.934c0.065,1.45,0.803,2.175,2.214,2.175c0.796,0,1.521-0.238,2.175-0.714v1.259
					c-0.641,0.42-1.482,0.63-2.525,0.63c-1.064,0-1.897-0.325-2.499-0.974c-0.602-0.649-0.902-1.558-0.902-2.727
					c0-1.108,0.323-2.021,0.97-2.74c0.647-0.718,1.458-1.078,2.432-1.078c0.97,0,1.724,0.307,2.263,0.919
					c0.538,0.612,0.808,1.455,0.808,2.528V32.579z M134.388,31.469c-0.005-0.615-0.146-1.086-0.422-1.416
					c-0.277-0.329-0.671-0.493-1.182-0.493c-0.464,0-0.866,0.174-1.208,0.522c-0.342,0.349-0.554,0.811-0.636,1.386H134.388z"/>
				<path fill="#B8876F" d="M143.911,35.098c0,2.692-1.346,4.038-4.037,4.038c-0.914,0-1.688-0.156-2.324-0.468v-1.402
					c0.787,0.441,1.551,0.662,2.291,0.662c1.697,0,2.545-0.868,2.545-2.604v-0.714h-0.025c-0.528,0.878-1.322,1.318-2.383,1.318
					c-0.9,0-1.622-0.321-2.165-0.964c-0.543-0.643-0.814-1.5-0.814-2.574c0-1.212,0.297-2.178,0.893-2.899
					c0.595-0.721,1.388-1.081,2.379-1.081c0.939,0,1.636,0.37,2.091,1.11h0.025V28.58h1.525V35.098z M142.398,31.553
					c0-0.532-0.175-0.985-0.525-1.36s-0.783-0.562-1.299-0.562c-0.627,0-1.122,0.237-1.483,0.711
					c-0.361,0.474-0.542,1.131-0.542,1.97c0,0.727,0.174,1.308,0.52,1.743c0.347,0.435,0.803,0.652,1.37,0.652
					c0.575,0,1.046-0.214,1.412-0.643c0.365-0.429,0.548-0.97,0.548-1.623V31.553z"/>
				<path fill="#B8876F" d="M145.897,26.113c0-0.255,0.088-0.466,0.264-0.633c0.175-0.167,0.396-0.25,0.665-0.25
					c0.264,0,0.487,0.083,0.669,0.25c0.182,0.167,0.272,0.378,0.272,0.633s-0.091,0.466-0.272,0.633s-0.405,0.25-0.669,0.25
					s-0.484-0.084-0.662-0.253C145.986,26.574,145.897,26.364,145.897,26.113z M146.047,35.76v-7.18h1.525v7.18H146.047z"/>
				<path fill="#B8876F" d="M149.385,34.092c0.671,0.455,1.367,0.682,2.09,0.682c0.952,0,1.429-0.294,1.429-0.883
					c0-0.247-0.1-0.449-0.299-0.607c-0.199-0.158-0.646-0.367-1.344-0.626c-0.731-0.281-1.225-0.581-1.48-0.899
					c-0.255-0.318-0.383-0.717-0.383-1.198c0-0.662,0.277-1.186,0.831-1.571s1.24-0.578,2.058-0.578c0.628,0,1.215,0.104,1.76,0.312
					v1.35c-0.545-0.337-1.155-0.506-1.831-0.506c-0.385,0-0.696,0.08-0.935,0.24s-0.357,0.37-0.357,0.63
					c0,0.255,0.088,0.457,0.264,0.604c0.175,0.147,0.578,0.342,1.21,0.584c0.779,0.286,1.311,0.59,1.594,0.912
					c0.284,0.322,0.426,0.724,0.426,1.204c0,0.68-0.277,1.214-0.831,1.604s-1.281,0.584-2.182,0.584
					c-0.771,0-1.443-0.134-2.019-0.403V34.092z"/>
				<path fill="#B8876F" d="M155.986,35.76V25.133h1.525V35.76H155.986z"/>
				<path fill="#B8876F" d="M159.836,29.061c0.731-0.433,1.577-0.649,2.538-0.649c1.813,0,2.721,0.938,2.721,2.811v4.538h-1.48
					v-1.091h-0.032c-0.489,0.84-1.217,1.26-2.182,1.26c-0.705,0-1.261-0.19-1.665-0.571s-0.607-0.894-0.607-1.539
					c0-1.351,0.803-2.138,2.409-2.363l2.084-0.286c0-1.069-0.47-1.604-1.409-1.604c-0.861,0-1.653,0.279-2.376,0.837V29.061z
					 M162.037,32.423c-0.52,0.069-0.887,0.201-1.101,0.396c-0.215,0.195-0.321,0.48-0.321,0.857c0,0.316,0.114,0.575,0.344,0.776
					s0.523,0.302,0.883,0.302c0.511,0,0.935-0.181,1.272-0.542s0.507-0.817,0.507-1.367v-0.636L162.037,32.423z"/>
				<path fill="#B8876F" d="M170.801,35.682c-0.281,0.16-0.686,0.24-1.214,0.24c-1.363,0-2.045-0.74-2.045-2.22v-3.915h-1.214V28.58
					h1.214v-1.681l1.52-0.461v2.142h1.739v1.208h-1.739v3.648c0,0.446,0.079,0.769,0.237,0.967c0.157,0.199,0.412,0.299,0.763,0.299
					c0.272,0,0.519-0.078,0.739-0.234V35.682z"/>
				<path fill="#B8876F" d="M172.073,26.113c0-0.255,0.088-0.466,0.264-0.633c0.175-0.167,0.396-0.25,0.665-0.25
					c0.264,0,0.487,0.083,0.669,0.25c0.182,0.167,0.272,0.378,0.272,0.633s-0.091,0.466-0.272,0.633s-0.405,0.25-0.669,0.25
					s-0.484-0.084-0.662-0.253C172.162,26.574,172.073,26.364,172.073,26.113z M172.223,35.76v-7.18h1.525v7.18H172.223z"/>
				<path fill="#B8876F" d="M181.967,28.58l-2.798,7.18h-1.616l-2.662-7.18h1.655l1.617,4.94c0.138,0.424,0.223,0.79,0.253,1.097
					h0.032c0.039-0.355,0.117-0.71,0.233-1.064l1.682-4.973H181.967z"/>
				<path fill="#B8876F" d="M189.102,32.579h-4.934c0.065,1.45,0.803,2.175,2.214,2.175c0.796,0,1.521-0.238,2.175-0.714v1.259
					c-0.641,0.42-1.482,0.63-2.525,0.63c-1.064,0-1.897-0.325-2.499-0.974c-0.602-0.649-0.902-1.558-0.902-2.727
					c0-1.108,0.323-2.021,0.97-2.74c0.647-0.718,1.458-1.078,2.432-1.078c0.97,0,1.724,0.307,2.263,0.919
					c0.538,0.612,0.808,1.455,0.808,2.528V32.579z M187.622,31.469c-0.005-0.615-0.146-1.086-0.422-1.416
					c-0.277-0.329-0.671-0.493-1.182-0.493c-0.464,0-0.866,0.174-1.208,0.522c-0.342,0.349-0.554,0.811-0.636,1.386H187.622z"/>
				<path fill="#B8876F" d="M201.099,25.704l-3.298,6.388v3.668h-1.564v-3.636l-3.22-6.42h1.785l2.025,4.265
					c0,0.004,0.08,0.234,0.24,0.688h0.02c0.052-0.225,0.137-0.45,0.253-0.675l2.104-4.278H201.099z"/>
				<path fill="#B8876F" d="M208.39,35.76h-1.52v-1.123h-0.032c-0.498,0.861-1.233,1.292-2.207,1.292
					c-1.692,0-2.538-1.015-2.538-3.045V28.58h1.519v4.116c0,1.342,0.516,2.013,1.545,2.013c0.502,0,0.913-0.184,1.233-0.552
					s0.48-0.851,0.48-1.448V28.58h1.52V35.76z"/>
				<path fill="#B8876F" d="M210.721,29.061c0.731-0.433,1.577-0.649,2.538-0.649c1.813,0,2.721,0.938,2.721,2.811v4.538h-1.48
					v-1.091h-0.032c-0.489,0.84-1.217,1.26-2.182,1.26c-0.705,0-1.261-0.19-1.665-0.571s-0.607-0.894-0.607-1.539
					c0-1.351,0.803-2.138,2.409-2.363l2.084-0.286c0-1.069-0.47-1.604-1.409-1.604c-0.861,0-1.653,0.279-2.376,0.837V29.061z
					 M212.922,32.423c-0.52,0.069-0.887,0.201-1.101,0.396c-0.215,0.195-0.321,0.48-0.321,0.857c0,0.316,0.114,0.575,0.344,0.776
					s0.523,0.302,0.883,0.302c0.511,0,0.935-0.181,1.272-0.542s0.507-0.817,0.507-1.367v-0.636L212.922,32.423z"/>
				<path fill="#B8876F" d="M224.302,35.76h-1.52v-4.058c0-1.38-0.502-2.071-1.506-2.071c-0.507,0-0.926,0.191-1.257,0.575
					c-0.331,0.383-0.496,0.869-0.496,1.457v4.097h-1.525v-7.18h1.525v1.175h0.032c0.532-0.896,1.312-1.344,2.337-1.344
					c1.605,0,2.409,0.987,2.409,2.96V35.76z"/>
			</g>
		</g>
	</g>
</g>
</svg>
