<?xml version="1.0" encoding="utf-8"?>
<!-- Generator: Adobe Illustrator 16.0.0, SVG Export Plug-In . SVG Version: 6.00 Build 0)  -->
<!DOCTYPE svg PUBLIC "-//W3C//DTD SVG 1.1//EN" "http://www.w3.org/Graphics/SVG/1.1/DTD/svg11.dtd">
<svg version="1.1" id="圖層_1" xmlns="http://www.w3.org/2000/svg" xmlns:xlink="http://www.w3.org/1999/xlink" x="0px" y="0px"
	 width="49.57px" height="49.355px" viewBox="8.657 16.324 49.57 49.355" enable-background="new 8.657 16.324 49.57 49.355"
	 xml:space="preserve">
<g id="圖層_3" display="none">
	<rect x="-397.514" display="inline" opacity="0.7" enable-background="new    " width="1920" height="1630.727"/>
</g>
<g>
	<g>
		<g>
			<g>
				<path fill="#B8876F" d="M22.341,26.64c-0.627-0.1-1.25-0.191-1.871-0.191c-6.514,0-11.813,5.295-11.813,11.809
					c0,4.197,2.287,8.078,5.875,10.176c-0.455,1.287-1.234,3.736-1.234,5.435c0,6.514,5.299,11.812,11.813,11.812
					c3.199,0,6.178-1.332,8.395-3.599c1.553,1.155,5.164,3.599,8.059,3.599c6.512,0,11.811-5.298,11.811-11.812
					c0-1.81-0.438-3.576-1.227-5.187c1.854-1.246,6.078-4.668,6.078-10.21l0,0c0-4.057-2.047-7.785-5.471-9.969
					c-1.895-1.205-4.086-1.842-6.342-1.842c-0.305,0-0.641,0.053-0.965,0.123c-0.684-5.91-5.664-10.459-11.691-10.459
					C27.712,16.323,22.946,20.774,22.341,26.64z M24.198,27.878c0-5.385,4.119-9.447,9.494-9.447c5.143,0,9.43,4.016,9.719,9.143
					l0.074,2.021l1.383-0.467c0.41-0.154,1.16-0.361,1.541-0.361c1.854,0,3.656,0.523,5.209,1.514
					c2.816,1.793,4.496,4.855,4.496,8.189c0,5.654-5.789,8.873-5.846,8.906l-0.971,0.526l0.57,0.945
					c0.916,1.508,1.396,3.246,1.396,5.019c0,5.353-4.354,9.702-9.701,9.702c-2.389,0-6.205-2.668-7.473-3.696l-0.816-0.662
					l-0.661,0.812c-1.854,2.258-4.588,3.549-7.502,3.549c-5.35,0-9.703-4.353-9.703-9.703c0-1.609,1.012-4.525,1.402-5.514
					l0.361-0.914l-0.887-0.424c-3.352-1.607-5.518-5.043-5.518-8.759c0-5.348,4.354-9.699,9.703-9.699
					c0.66,0,1.252,0.064,1.891,0.195l1.838,0.469L24.198,27.878L24.198,27.878z"/>
			</g>
		</g>
		<g>
			<g>
				<path fill="#B8876F" d="M45.147,43.255l-0.057,1c-0.602,6.185-5.744,10.759-11.967,10.759c-6.242,0-11.389-4.548-11.969-10.757
					l-0.052-1.002h-2.109l0.061,1.152c0.686,7.299,6.734,12.713,14.07,12.713c7.314,0,13.361-5.351,14.066-12.617
					c0-0.002,0.066-1.248,0.066-1.248H45.147z"/>
			</g>
		</g>
		<g>
			<g>
				<path fill="#B8876F" d="M19.056,40.712l2.102,0.199c0.584-6.203,5.73-10.877,11.967-10.877c6.223,0,11.486,4.848,11.986,11.043
					l2.1-0.173c-0.584-7.276-6.771-12.979-14.086-12.979C25.792,27.925,19.745,33.421,19.056,40.712z"/>
			</g>
		</g>
		<g>
			<g>
				<path fill="#B8876F" d="M35.198,35.466c3,0.705,5.975,3.654,5.975,7.013c0,3.592-2.805,6.646-6.354,7.108l-0.15,2.136
					c4.604-0.603,8.646-4.599,8.646-9.244c0-4.347-4.115-8.523-8.115-9.351L35.198,35.466L35.198,35.466z"/>
			</g>
		</g>
		<g>
			<g>
				<path fill="#B8876F" d="M23.915,42.479c0,5.117,4.283,9.278,9.283,9.278v-2.108c-4,0-7.17-3.217-7.17-7.17
					c0-3.956,3.17-7.174,7.17-7.174v-2.105C28.198,33.198,23.915,37.36,23.915,42.479z"/>
			</g>
		</g>
	</g>
</g>
</svg>
